<?xml version="1.0" encoding="utf-8"?>
<!-- Generator: Adobe Illustrator 24.0.2, SVG Export Plug-In . SVG Version: 6.00 Build 0)  -->
<svg version="1.1" id="Layer_1" xmlns="http://www.w3.org/2000/svg" xmlns:xlink="http://www.w3.org/1999/xlink" x="0px" y="0px"
	 viewBox="0 0 256 158" style="enable-background:new 0 0 256 158;" xml:space="preserve">
<style type="text/css">
	.st0{fill:#2E97FF;}
</style>
<g>
	<path class="st0" d="M238.4,157.9h-220c-10,0-18.4-8.4-18.4-18.4V18.4C0,8.4,8.4,0,18.4,0h219.2c10,0,18.4,8.4,18.4,18.4v121.1
		C256,149.5,248.3,157.9,238.4,157.9L238.4,157.9z M18.4,12.3c-3.1,0-6.1,3.1-6.1,6.1v121.1c0,3.8,3.1,6.1,6.1,6.1h219.2
		c3.8,0,6.1-3.1,6.1-6.1V18.4c0-3.8-3.1-6.1-6.1-6.1C238.4,12.3,18.4,12.3,18.4,12.3L18.4,12.3z M36.8,121.1V36.8h24.5l24.5,30.7
		l24.5-30.7h24.5v84.3h-24.5V72.8l-24.5,30.7L61.3,72.8v48.3H36.8L36.8,121.1z M190.9,121.1l-36.8-40.6h24.5V36.8h24.5v42.9h24.5
		L190.9,121.1L190.9,121.1z"/>
</g>
</svg>
